<svg width="17" height="17" viewBox="0 0 17 17" fill="none" xmlns="http://www.w3.org/2000/svg">
<g id="SVG">
<path id="Vector" d="M14.1238 5.88658C14.1174 5.41322 14.0288 4.94457 13.8619 4.50158C13.7171 4.12793 13.496 3.78858 13.2126 3.50523C12.9293 3.22187 12.5899 3.00074 12.2163 2.85596C11.779 2.6918 11.317 2.60304 10.85 2.59346C10.2488 2.56658 10.0582 2.55908 8.5319 2.55908C7.00566 2.55908 6.81003 2.55908 6.21316 2.59346C5.74638 2.60312 5.28462 2.69187 4.84753 2.85596C4.47382 3.00064 4.13442 3.22173 3.85105 3.5051C3.56768 3.78847 3.34659 4.12787 3.2019 4.50158C3.03742 4.93854 2.94886 5.4004 2.94003 5.86721C2.91315 6.46908 2.90503 6.65971 2.90503 8.18596C2.90503 9.71221 2.90503 9.90721 2.94003 10.5047C2.9494 10.9722 3.03753 11.4335 3.2019 11.8716C3.34683 12.2452 3.56809 12.5844 3.85155 12.8677C4.13501 13.1509 4.47444 13.3719 4.84816 13.5166C5.28405 13.6873 5.74589 13.7824 6.21378 13.7978C6.81566 13.8247 7.00628 13.8328 8.53253 13.8328C10.0588 13.8328 10.2544 13.8328 10.8513 13.7978C11.3182 13.7886 11.7802 13.7001 12.2175 13.536C12.5911 13.391 12.9303 13.1698 13.2137 12.8865C13.497 12.6031 13.7182 12.2639 13.8631 11.8903C14.0275 11.4528 14.1156 10.9916 14.125 10.5235C14.1519 9.92221 14.16 9.73158 14.16 8.20471C14.1587 6.67846 14.1588 6.48471 14.1238 5.88658ZM8.52816 11.0722C6.93191 11.0722 5.63878 9.77908 5.63878 8.18283C5.63878 6.58658 6.93191 5.29346 8.52816 5.29346C9.29447 5.29346 10.0294 5.59787 10.5712 6.13973C11.1131 6.6816 11.4175 7.41652 11.4175 8.18283C11.4175 8.94914 11.1131 9.68407 10.5712 10.2259C10.0294 10.7678 9.29447 11.0722 8.52816 11.0722ZM11.5325 5.86033C11.444 5.86041 11.3564 5.84304 11.2746 5.80921C11.1928 5.77538 11.1185 5.72576 11.0559 5.66318C10.9933 5.6006 10.9437 5.52629 10.9099 5.44451C10.876 5.36273 10.8587 5.27508 10.8587 5.18658C10.8587 5.09814 10.8762 5.01057 10.91 4.92887C10.9439 4.84716 10.9935 4.77292 11.056 4.71039C11.1185 4.64785 11.1928 4.59825 11.2745 4.56441C11.3562 4.53056 11.4438 4.51314 11.5322 4.51314C11.6206 4.51314 11.7082 4.53056 11.7899 4.56441C11.8716 4.59825 11.9458 4.64785 12.0084 4.71039C12.0709 4.77292 12.1205 4.84716 12.1544 4.92887C12.1882 5.01057 12.2056 5.09814 12.2056 5.18658C12.2056 5.55908 11.9044 5.86033 11.5325 5.86033Z" fill="#333333"/>
<path id="Vector_2" d="M8.528 10.0599C9.56457 10.0599 10.4049 9.2196 10.4049 8.18303C10.4049 7.14646 9.56457 6.30615 8.528 6.30615C7.49143 6.30615 6.65112 7.14646 6.65112 8.18303C6.65112 9.2196 7.49143 10.0599 8.528 10.0599Z" fill="#333333"/>
</g>
</svg>
