<?xml version="1.0" encoding="UTF-8"?> <svg xmlns="http://www.w3.org/2000/svg" width="293" height="235" viewBox="0 0 293 235" fill="none"><g clip-path="url(#clip0_443_16205)"><path d="M45.4538 213.228C45.4538 226.408 37.7517 233.815 25.161 233.815H2.05737V124.211H24.5695C37.1705 124.211 44.8597 131.617 44.8597 144.946V163.755C44.8597 170.125 43.5276 175.16 36.5662 178.565C43.5276 182.119 45.4538 187.157 45.4538 193.524V213.228ZM27.2337 144.951C27.2337 140.065 26.0508 137.398 23.0882 137.398H19.83V171.907H23.0882C26.0508 171.907 27.2337 169.24 27.2337 164.501V144.951ZM27.8278 192.493C27.8278 187.754 26.6423 185.087 23.6797 185.087H19.8223V220.632H23.6797C26.6423 220.632 27.8278 217.968 27.8278 213.079V192.493Z" fill="#F2F0E8"></path><path d="M76.8483 192.938C76.8483 188.199 75.6628 185.532 72.7003 185.532H68.8428V233.815H51.0779V124.211H74.1815C86.7826 124.211 94.4718 131.617 94.4718 144.946V164.051C94.4718 170.272 92.8439 175.307 85.8825 178.709C92.8439 182.263 94.4718 187.298 94.4718 193.668V221.676C94.4718 225.675 95.0658 229.823 96.6937 233.822H78.9211C77.1492 230.26 76.8483 225.534 76.8483 221.676V192.938ZM76.8483 144.951C76.8483 140.065 75.6628 137.398 72.7003 137.398H68.8428V172.203H72.7003C75.6628 172.203 76.8483 169.536 76.8483 164.796V144.951Z" fill="#F2F0E8"></path><path d="M132.828 124.211L146.007 233.815H128.68L126.756 209.97H117.573L115.647 233.815H99.2061L112.381 124.211H132.828ZM118.756 195.445H125.57L123.644 172.943L122.312 153.985H121.867L120.535 172.943L118.756 195.445Z" fill="#F2F0E8"></path><path d="M177.996 179.164H178.292V124.211H193.549V233.815H177.862L165.408 169.685H165.112V233.815H149.857V124.211H168.666L177.996 179.164Z" fill="#F2F0E8"></path><path d="M241.976 212.932C241.976 227.151 234.866 235.002 221.39 235.002C207.915 235.002 199.619 227.148 199.619 212.932V145.1C199.619 130.881 207.912 123.03 221.39 123.03C234.868 123.03 241.976 130.881 241.976 145.1V167.759H225.386V143.755C225.386 139.165 224.204 136.498 221.39 136.498C218.428 136.498 217.242 139.165 217.242 143.755V214.411C217.242 218.855 218.428 221.522 221.39 221.522C224.204 221.522 225.386 218.855 225.386 214.411V189.381H241.976V212.932Z" fill="#F2F0E8"></path><path d="M274.854 185.977H265.375V233.809H247.603V124.211H265.375V171.015H274.854V124.211H292.478V233.815H274.854V185.977Z" fill="#F2F0E8"></path><path d="M146.566 36.8518C146.225 41.2371 147.026 45.636 148.891 49.6197C150.756 53.6033 153.621 57.0358 157.207 59.5827C157.611 59.8696 157.94 60.249 158.168 60.6892C158.395 61.1295 158.513 61.6177 158.513 62.1132C158.513 62.6086 158.395 63.0969 158.168 63.5371C157.94 63.9773 157.611 64.3568 157.207 64.6437C153.62 67.191 150.754 70.6243 148.889 74.6089C147.024 78.5936 146.224 82.9935 146.566 87.3797C147.499 99.8188 157.588 109.907 170.027 110.841C174.413 111.183 178.813 110.382 182.797 108.517C186.782 106.652 190.215 103.786 192.763 100.199C193.049 99.7955 193.429 99.4661 193.869 99.2388C194.309 99.0116 194.798 98.893 195.293 98.893C195.788 98.893 196.277 99.0116 196.717 99.2388C197.157 99.4661 197.537 99.7955 197.824 100.199C200.371 103.785 203.803 106.65 207.787 108.514C211.771 110.379 216.169 111.18 220.554 110.838C233.112 109.9 243.246 99.6336 244.041 87.0685C244.402 81.5296 242.945 76.0243 239.892 71.3886C236.839 66.7529 232.357 63.24 227.126 61.3833C221.895 59.5266 216.201 59.4275 210.909 61.1011C205.617 62.7747 201.015 66.1295 197.803 70.6562C197.516 71.057 197.138 71.3833 196.699 71.6078C196.261 71.8323 195.775 71.9486 195.282 71.9468C194.789 71.945 194.304 71.8253 193.867 71.5977C193.43 71.37 193.054 71.041 192.77 70.6382C191.116 68.3174 189.086 66.2881 186.765 64.6334C186.363 64.3496 186.034 63.9735 185.806 63.5365C185.578 63.0995 185.459 62.6144 185.457 62.1217C185.455 61.6289 185.571 61.143 185.796 60.7044C186.02 60.2658 186.347 59.8873 186.747 59.6007C191.269 56.3866 194.62 51.7853 196.29 46.4949C197.961 41.2045 197.86 35.5136 196.004 30.2855C194.147 25.0575 190.636 20.5775 186.004 17.5253C181.371 14.4731 175.869 13.0151 170.333 13.3726C157.768 14.1595 147.504 24.2944 146.566 36.8518Z" fill="#F2F0E8"></path><path d="M220.351 52.0013C228.607 52.0013 235.3 45.3084 235.3 37.0523C235.3 28.7962 228.607 22.1033 220.351 22.1033C212.095 22.1033 205.402 28.7962 205.402 37.0523C205.402 45.3084 212.095 52.0013 220.351 52.0013Z" fill="#F2F0E8"></path><path d="M29.3167 14.5144V109.599H11.7009V14.5144H0V0H41.0253V14.5144H29.3167Z" fill="#F2F0E8"></path><path d="M73.014 61.7607H63.5349V109.593H45.7751V0H63.5478V46.804H73.0269V0H90.6503V109.599H73.014V61.7607Z" fill="#F2F0E8"></path><path d="M97.1516 0H131.511V14.5144H114.775V46.948H129.734V61.4624H114.775V95.0841H131.511V109.599H97.1516V0Z" fill="#F2F0E8"></path></g><defs><clipPath id="clip0_443_16205"><rect width="292.478" height="235" fill="white"></rect></clipPath></defs></svg> 