 <svg width="141" height="28" viewBox="0 0 141 28" fill="none" xmlns="http://www.w3.org/2000/svg">
                            <path d="M34.953 3.84876V27.1589H30.4136V3.84876H27.3994V0.290466H37.9665V3.84876H34.953Z" fill="#333333"></path>
                            <path d="M46.2056 15.4326H43.7669V27.1589H39.1873V0.290466H43.7669V11.7639H46.2056V0.290466H50.745V27.1589H46.2056V15.4326Z" fill="#333333"></path>
                            <path d="M52.4238 0.290466H61.2739V3.84876H56.9632V11.8003H60.8165V15.3586H56.9632V23.6007H61.2739V27.1589H52.4238V0.290466Z" fill="#333333"></path>
                            <path d="M77.2951 22.112C77.2951 25.3434 75.3118 27.1589 72.0689 27.1589H66.1177V0.290466H71.918C75.1602 0.290466 77.1435 2.106 77.1435 5.37195V9.98292C77.1435 11.5444 76.8008 12.779 75.0079 13.614C76.8008 14.4854 77.2964 15.72 77.2964 17.2808L77.2951 22.112ZM72.6028 5.37383C72.6028 4.1756 72.2976 3.52191 71.535 3.52191H70.696V11.9823H71.535C72.2976 11.9823 72.6028 11.3292 72.6028 10.1674V5.37383ZM72.7557 17.0286C72.7557 15.8668 72.4505 15.2131 71.6873 15.2131H70.6986V23.9275H71.6873C72.4505 23.9275 72.7557 23.2738 72.7557 22.0756V17.0286Z" fill="#333333"></path>
                            <path d="M85.3819 17.1378C85.3819 15.9759 85.0774 15.3222 84.3142 15.3222H83.3222V27.1589H78.7439V0.290466H84.6984C87.9413 0.290466 89.9253 2.106 89.9253 5.37195V10.0557C89.9253 11.5808 89.5054 12.816 87.7126 13.6504C89.5054 14.5217 89.9253 15.7564 89.9253 17.3172V24.1816C89.9253 25.1621 90.0775 26.1784 90.4974 27.1589H85.9191C85.4617 26.2876 85.3852 25.1257 85.3852 24.1816L85.3819 17.1378ZM85.3819 5.37383C85.3819 4.1756 85.0774 3.52191 84.3142 3.52191H83.3222V12.0538H84.3142C85.0774 12.0538 85.3819 11.4001 85.3819 10.2382V5.37383Z" fill="#333333"></path>
                            <path d="M99.801 0.290466L103.196 27.1589H98.7326L98.2369 21.3134H95.872L95.3763 27.1589H91.1421L94.5366 0.290466H99.801ZM96.1758 17.7551H97.9311L97.4354 12.2345L97.09 7.59086H96.9753L96.6319 12.2388L96.1758 17.7551Z" fill="#333333"></path>
                            <path d="M111.435 13.7608H111.512V0.290466H115.441V27.1589H111.398L108.193 11.4371H108.117V27.1589H104.188V0.290466H109.032L111.435 13.7608Z" fill="#333333"></path>
                            <path d="M127.915 22.0392C127.915 25.5247 126.084 27.4494 122.612 27.4494C119.14 27.4494 117.004 25.5247 117.004 22.0392V5.41021C117.004 1.92469 119.141 0 122.612 0C126.083 0 127.915 1.92469 127.915 5.41021V10.9653H123.642V5.08148C123.642 3.95602 123.337 3.30233 122.612 3.30233C121.849 3.30233 121.544 3.95602 121.544 5.08148V22.4024C121.544 23.4915 121.849 24.1452 122.612 24.1452C123.337 24.1452 123.642 23.4915 123.642 22.4024V16.2664H127.915V22.0392Z" fill="#333333"></path>
                            <path d="M0.0200076 9.29284C-0.0684695 10.3683 0.13751 11.4473 0.617846 12.4244C1.09818 13.4016 1.83646 14.2435 2.76065 14.868C2.86459 14.9385 2.94932 15.0316 3.00779 15.1396C3.06626 15.2476 3.09676 15.3673 3.09676 15.4888C3.09676 15.6103 3.06626 15.73 3.00779 15.838C2.94932 15.9459 2.86459 16.0391 2.76065 16.1095C1.83732 16.7337 1.09958 17.5748 0.619286 18.551C0.138995 19.5271 -0.0674685 20.6051 0.0200076 21.6797C0.259929 24.7292 2.85886 27.2003 6.06286 27.4312C7.1925 27.5148 8.32563 27.3185 9.35184 26.8614C10.378 26.4042 11.2623 25.7019 11.9185 24.8227C11.9925 24.7238 12.0903 24.6431 12.2037 24.5875C12.3171 24.5318 12.4428 24.5028 12.5704 24.5028C12.698 24.5028 12.8237 24.5318 12.9371 24.5875C13.0505 24.6431 13.1483 24.7238 13.2223 24.8227C13.8785 25.7019 14.7628 26.4042 15.789 26.8614C16.8152 27.3185 17.9483 27.5148 19.0779 27.4312C22.3116 27.201 24.9224 24.6847 25.1267 21.6044C25.2197 20.2465 24.8445 18.8968 24.0582 17.7603C23.2719 16.6238 22.1175 15.7625 20.7701 15.3073C19.4227 14.8521 17.9561 14.8278 16.5929 15.2381C15.2297 15.6484 14.0444 16.4709 13.217 17.5807C13.1428 17.6785 13.0452 17.758 12.9323 17.8127C12.8193 17.8675 12.6943 17.8958 12.5676 17.8954C12.4408 17.8949 12.316 17.8658 12.2035 17.8103C12.091 17.7548 11.994 17.6746 11.9205 17.5763C11.4949 17.0071 10.9722 16.5097 10.3742 16.1045C10.2709 16.0346 10.1866 15.9423 10.1283 15.8352C10.07 15.7281 10.0394 15.6093 10.0389 15.4887C10.0385 15.368 10.0682 15.2491 10.1257 15.1416C10.1832 15.0341 10.2668 14.9412 10.3696 14.8705C11.5356 14.0831 12.3998 12.9549 12.8309 11.6575C13.262 10.36 13.2364 8.96406 12.7582 7.68166C12.2799 6.39925 11.375 5.30043 10.1809 4.55205C8.98676 3.80366 7.56867 3.4466 6.14196 3.53508C2.905 3.72956 0.264543 6.21447 0.0200076 9.29284Z" fill="#333333"></path>
                            <path d="M19.0252 13.0067C21.1515 13.0067 22.8752 11.3662 22.8752 9.34241C22.8752 7.31867 21.1515 5.6781 19.0252 5.6781C16.899 5.6781 15.1753 7.31867 15.1753 9.34241C15.1753 11.3662 16.899 13.0067 19.0252 13.0067Z" fill="#333333"></path>
                            <path d="M136.383 15.4326H133.944V27.1589H129.367V0.290466H133.944V11.7639H136.383V0.290466H140.922V27.1589H136.382L136.383 15.4326Z" fill="#333333"></path>
                        </svg>