<svg class="tiktok" width="17" height="17" viewBox="0 0 17 17" fill="none" xmlns="http://www.w3.org/2000/svg">
    <g id="SVG">
    <g id="Clip path group">
    <mask id="mask0_1_1071" style="mask-type:luminance" maskUnits="userSpaceOnUse" x="1" y="0" width="16" height="16">
    <g id="clip0_4_9487">
    <path id="Vector" d="M16.03 0.695801H1.03003V15.6958H16.03V0.695801Z" fill="#ffffff"/>
    </g>
    </mask>
    <g mask="url(#mask0_1_1071)">
    <g id="Group">
    <path id="Vector_2" d="M13.1073 4.17205C13.0124 4.12295 12.92 4.06914 12.8305 4.0108C12.5703 3.83875 12.3317 3.63605 12.1198 3.40705C11.5892 2.80017 11.3911 2.18455 11.3186 1.75392H11.3211C11.2605 1.3958 11.2855 1.16455 11.2898 1.16455H8.87425V10.5039C8.87425 10.6289 8.87425 10.7533 8.86925 10.8758C8.86925 10.8908 8.86738 10.9046 8.86675 10.9214C8.86675 10.9277 8.86675 10.9352 8.86488 10.942V10.9477C8.83951 11.2827 8.73219 11.6063 8.55237 11.8901C8.37255 12.1739 8.12573 12.4092 7.83363 12.5752C7.5289 12.7485 7.18422 12.8394 6.83363 12.8389C5.70863 12.8389 4.79613 11.9214 4.79613 10.7883C4.79613 9.65455 5.70863 8.73705 6.83363 8.73705C7.04675 8.73705 7.25863 8.7708 7.46113 8.83705L7.46425 6.37705C6.84926 6.29771 6.2245 6.34672 5.6294 6.52099C5.03431 6.69525 4.4818 6.991 4.00675 7.38955C3.59041 7.75114 3.24037 8.18261 2.97238 8.66455C2.8705 8.84017 2.4855 9.54705 2.43925 10.6933C2.40988 11.3433 2.6055 12.0183 2.69863 12.2964V12.3027C2.75675 12.4664 2.98425 13.0264 3.35425 13.4983C3.65263 13.8771 4.00516 14.2098 4.4005 14.4858V14.4796L4.40613 14.4858C5.57488 15.2795 6.87175 15.2277 6.87175 15.2277C7.09613 15.2183 7.848 15.2277 8.70175 14.8233C9.64863 14.3746 10.1874 13.7064 10.1874 13.7064C10.5318 13.3071 10.8057 12.8521 10.9973 12.3608C11.2161 11.7858 11.2886 11.097 11.2886 10.822V5.86642C11.318 5.88392 11.7086 6.14205 11.7086 6.14205C11.7086 6.14205 12.2711 6.50268 13.148 6.73705C13.7767 6.90393 14.6249 6.93955 14.6249 6.93955V4.54142C14.328 4.57392 13.7254 4.47955 13.1073 4.17205Z" fill="#333333"/>
    </g>
    </g>
    </g>
    </g>
</svg>
