<svg width="17" height="17" viewBox="0 0 17 17" fill="none" xmlns="http://www.w3.org/2000/svg">
<g id="SVG">
<path id="Vector" d="M15.405 2.57123C14.8065 2.9934 14.1438 3.31629 13.4425 3.52748C13.0661 3.09467 12.5658 2.78791 12.0094 2.64868C11.453 2.50945 10.8672 2.54447 10.3313 2.74901C9.79545 2.95354 9.33531 3.31773 9.01314 3.7923C8.69098 4.26687 8.52234 4.82894 8.53003 5.40248V6.02748C7.43168 6.05596 6.34333 5.81236 5.36191 5.31838C4.38049 4.8244 3.53648 4.09537 2.90503 3.19623C2.90503 3.19623 0.405029 8.82123 6.03003 11.3212C4.74286 12.195 3.2095 12.6331 1.65503 12.5712C7.28003 15.6962 14.155 12.5712 14.155 5.38373C14.1544 5.20963 14.1377 5.03597 14.105 4.86498C14.7429 4.23591 15.193 3.44167 15.405 2.57123Z" fill="#333333"/>
</g>
</svg>
