<svg width="17" height="17" viewBox="0 0 17 17" fill="none" xmlns="http://www.w3.org/2000/svg">
<g id="SVG">
<path id="Vector" fill-rule="evenodd" clip-rule="evenodd" d="M14.6795 3.92043C14.8924 4.13991 15.0436 4.41168 15.1179 4.7083C15.3161 5.80749 15.4124 6.92265 15.4054 8.03955C15.4093 9.13976 15.3131 10.238 15.1179 11.3208C15.0436 11.6174 14.8924 11.8892 14.6795 12.1087C14.4666 12.3281 14.1996 12.4876 13.9054 12.5708C12.8304 12.8583 8.53039 12.8583 8.53039 12.8583C8.53039 12.8583 4.23039 12.8583 3.15539 12.5708C2.86715 12.4919 2.60413 12.3401 2.39173 12.1298C2.17933 11.9196 2.02474 11.6582 1.94289 11.3708C1.74462 10.2716 1.64837 9.15645 1.65539 8.03955C1.64991 6.93099 1.74615 5.82427 1.94289 4.7333C2.01713 4.43668 2.16833 4.16491 2.38123 3.94543C2.59412 3.72595 2.86117 3.56654 3.15539 3.4833C4.23039 3.1958 8.53039 3.1958 8.53039 3.1958C8.53039 3.1958 12.8304 3.1958 13.9054 3.4583C14.1996 3.54154 14.4666 3.70095 14.6795 3.92043ZM10.7175 8.0396L7.12378 10.0834V5.99585L10.7175 8.0396Z" fill="#333333"/>
</g>
</svg>
